<?xml version="1.0" standalone="no"?>
<!DOCTYPE svg PUBLIC "-//W3C//DTD SVG 1.1//EN" "http://www.w3.org/Graphics/SVG/1.1/DTD/svg11.dtd" >
<svg xmlns="http://www.w3.org/2000/svg" xmlns:xlink="http://www.w3.org/1999/xlink" version="1.1">
<metadata></metadata>
<defs>
<font id="clubhausregular" horiz-adv-x="1071" >
<font-face units-per-em="2048" ascent="1638" descent="-410" />
<missing-glyph horiz-adv-x="512" />
<glyph horiz-adv-x="0" />
<glyph unicode="&#xd;" horiz-adv-x="512" />
<glyph horiz-adv-x="0" />
<glyph horiz-adv-x="0" />
<glyph unicode=" "  horiz-adv-x="512" />
<glyph unicode="&#x09;" horiz-adv-x="512" />
<glyph unicode="&#xa0;" horiz-adv-x="512" />
<glyph unicode="!" horiz-adv-x="436" d="M82 0h272v221h-272v-221zM82 342v1092h272v-1092h-272z" />
<glyph unicode="&#x22;" horiz-adv-x="753" d="M41 1165v269h281v-228q0 -66 -26 -115t-56 -83q-37 -39 -82 -70v227h-117zM432 1165v269h281v-228q0 -66 -25.5 -115t-56.5 -83q-37 -39 -82 -70v227h-117z" />
<glyph unicode="#" horiz-adv-x="1288" d="M-39 406l76 217h239l86 217h-239l74 215h243l80 225h217l-82 -225h217l84 225h218l-87 -225h244l-74 -215h-243l-86 -217h250l-84 -217h-240l-78 -220h-215l76 220h-215l-80 -220h-215l76 220h-242zM496 623h215l86 217h-215z" />
<glyph unicode="$" horiz-adv-x="1417" d="M82 1028q0 61 17.5 132t73.5 131.5t164.5 101.5t293.5 41v133h174v-133h469v-234h-469v-340q123 0 220 -18.5t167 -65.5t106.5 -131t36.5 -213q0 -137 -40 -222t-110.5 -131t-167.5 -62.5t-212 -16.5v-129h-174v129h-494v233h494v363h-49q-152 0 -248 31.5t-152.5 88 t-78 136.5t-21.5 176zM352 1030q0 -100 64.5 -134t214.5 -36v340q-49 0 -99.5 -5t-90.5 -22.5t-64.5 -51.5t-24.5 -91zM805 233q45 2 91 12.5t83 31t60.5 55.5t23.5 90q0 53 -23.5 86t-60.5 51.5t-83 25.5t-91 9v-361z" />
<glyph unicode="%" horiz-adv-x="1904" d="M72 1073q0 197 93 287t296 90q375 0 375 -371q0 -377 -367 -377q-205 0 -301 90.5t-96 280.5zM276 1083q0 -104 48.5 -151t136.5 -47q78 0 123 45t45 145q0 113 -41 153t-137 40q-82 0 -128.5 -43.5t-46.5 -141.5zM547 -12l618 1462h195l-625 -1462h-188zM1069 358 q0 197 95.5 284t293.5 87q193 0 284 -86t91 -278q0 -377 -367 -377q-203 0 -300 90t-97 280zM1278 369q0 -104 47 -150.5t133 -46.5q80 0 125 45t45 145q0 104 -47 148.5t-131 44.5q-82 0 -127 -44t-45 -142z" />
<glyph unicode="&#x26;" horiz-adv-x="1415" d="M20 358q0 55 7.5 103.5t26 91.5t52 82t89.5 74q-55 31 -85 69.5t-43.5 82.5t-15.5 93.5t-2 104.5q2 100 39 170.5t97.5 116t137 67t156.5 21.5h482v-236h-400q-115 0 -178.5 -43t-63.5 -145q0 -88 49.5 -137.5t145.5 -49.5h166v-217h-180q-90 0 -142.5 -50t-52.5 -142 q0 -47 22.5 -86t62.5 -68t92.5 -45t113.5 -16q86 0 148.5 25.5t107.5 75.5t77 127t56 179h-170v217h580v-217h-164q-35 -158 -83 -276.5t-123 -197.5t-182.5 -119t-260.5 -40q-127 0 -230.5 28t-177.5 79t-114 121.5t-40 156.5z" />
<glyph unicode="'" horiz-adv-x="362" d="M41 1165v269h281v-228q0 -66 -26 -115t-56 -83q-37 -39 -82 -70v227h-117z" />
<glyph unicode="(" horiz-adv-x="710" d="M82 758q0 211 86 442.5t258 462.5h203q-133 -211 -201 -434t-68 -471q0 -250 68 -471t201 -432h-203q-172 229 -258 460.5t-86 442.5z" />
<glyph unicode=")" horiz-adv-x="704" d="M82 -145q133 211 194.5 432t61.5 471q0 248 -61.5 470t-194.5 435h201q170 -231 255 -462.5t85 -442.5t-85 -442.5t-255 -460.5h-201z" />
<glyph unicode="*" horiz-adv-x="745" d="M41 993l176 101l-176 104l74 139l176 -106v203h162v-203l176 106l76 -139l-175 -104l175 -101l-76 -135l-176 105v-205h-162v205l-176 -105z" />
<glyph unicode="+" d="M74 625v235h325v338h260v-338h328v-235h-328v-340h-260v340h-325z" />
<glyph unicode="," horiz-adv-x="382" d="M51 0v268h281v-227q0 -66 -25.5 -115t-56.5 -84q-37 -39 -82 -69v227h-117z" />
<glyph unicode="-" horiz-adv-x="733" d="M61 614v215h611v-215h-611z" />
<glyph unicode="." horiz-adv-x="382" d="M51 0v268h281v-268h-281z" />
<glyph unicode="/" horiz-adv-x="1077" d="M133 0l555 1436h217l-547 -1436h-225z" />
<glyph unicode="0" horiz-adv-x="1439" d="M70 711q0 375 157.5 556t495.5 181q334 0 490.5 -180.5t156.5 -546.5q0 -362 -152.5 -547.5t-469.5 -185.5q-354 0 -516 178t-162 545zM332 727q0 -109 15 -203t58.5 -164.5t119 -111.5t198.5 -41q119 0 194.5 43t118.5 115.5t58.5 166t15.5 193.5q0 104 -19.5 196.5 t-65.5 161t-122 109.5t-188 41q-188 0 -285.5 -125t-97.5 -381z" />
<glyph unicode="1" horiz-adv-x="694" d="M82 1128v177q45 6 80 14t63.5 23.5t57 37t65.5 54.5h236v-1434h-252v1128h-250z" />
<glyph unicode="2" horiz-adv-x="1353" d="M76 0v383q0 133 23.5 213t82.5 139t145.5 85t223.5 26h168q57 0 110.5 2t94.5 17.5t66.5 49t25.5 99.5q0 63 -25.5 99t-66.5 53.5t-91.5 20.5t-99.5 3h-635v244h668q109 0 202 -16.5t162.5 -61.5t108.5 -123t39 -201q0 -111 -34 -189.5t-98.5 -127.5t-158.5 -71.5 t-213 -22.5h-149q-72 0 -123 -8.5t-85 -33t-50.5 -68.5t-16.5 -116v-151h903v-244h-1177z" />
<glyph unicode="3" horiz-adv-x="1265" d="M41 0v244h639q102 0 161.5 35.5t59.5 138.5v26q0 55 -18.5 88t-49 49.5t-70.5 21.5t-83 5h-444v234h444q47 0 88 8t70.5 27.5t46 52.5t16.5 80v8q0 55 -17.5 89t-48 52.5t-70.5 24.5t-85 6h-637v244h688q94 0 177 -17.5t144.5 -59.5t96.5 -109.5t35 -168.5v-90 q0 -78 -28 -142.5t-75 -113.5q47 -47 75 -109.5t28 -140.5v-129q0 -106 -39 -174.5t-102.5 -108.5t-144.5 -55.5t-167 -15.5h-690z" />
<glyph unicode="4" horiz-adv-x="1488" d="M41 285v260l756 889h338l-785 -912h623v473h278v-473h185v-237h-185v-285h-278v285h-932z" />
<glyph unicode="5" horiz-adv-x="1359" d="M76 618v816h1175v-244h-903v-352h412q111 0 208 -16.5t167.5 -62.5t111.5 -126t41 -207q0 -115 -34.5 -195.5t-101.5 -132t-164 -75t-220 -23.5h-680v244h623q57 0 112.5 3t98.5 19.5t69.5 53t26.5 104.5q0 66 -26.5 104.5t-69.5 58t-95.5 25.5t-101.5 6h-649z" />
<glyph unicode="6" horiz-adv-x="1423" d="M82 391v559q0 133 36 225.5t97 149.5t144 83t178 26h733v-234h-619q-41 0 -89 -7t-90 -26.5t-70.5 -54.5t-28.5 -88v-211l657 -4q72 0 130.5 -28.5t100.5 -75t64.5 -104.5t22.5 -120v-127q0 -111 -40 -180.5t-105.5 -107t-152.5 -52t-180 -14.5h-331q-86 0 -168 21.5 t-146.5 67.5t-103.5 121t-39 181zM373 399q0 -96 62.5 -133t158.5 -37h336q55 0 86 14.5t46 37t19 51t4 57.5v37q0 90 -58 130t-159 40h-495v-197z" />
<glyph unicode="7" horiz-adv-x="1316" d="M41 1042v392h1235v-258l-823 -1176h-326l834 1190h-685v-148h-235z" />
<glyph unicode="8" horiz-adv-x="1501" d="M82 354v127q0 41 9 74t26.5 62.5t42 58.5t55.5 61q-37 45 -60.5 110.5t-23.5 139.5v92q0 98 36 167t97.5 111t144.5 60.5t177 18.5h338q82 0 163.5 -16.5t147 -57.5t105.5 -109.5t40 -173.5v-92q0 -70 -24.5 -136.5t-67.5 -113.5q37 -33 61.5 -61.5t40 -58t22.5 -62.5 t7 -74v-127q0 -100 -35.5 -167.5t-97 -109.5t-143.5 -59.5t-174 -17.5h-428q-86 0 -168 15.5t-146.5 55.5t-104.5 108.5t-40 174.5zM358 389q0 -96 62.5 -133t159.5 -37h354q41 0 80 8.5t69.5 27.5t49 52t18.5 82v60q0 88 -64.5 128.5t-152.5 40.5h-354q-45 0 -85 -6 t-71 -24.5t-48.5 -51t-17.5 -87.5v-60zM393 1010q0 -47 17.5 -80t47 -53.5t69.5 -29.5t87 -9h273q45 0 85 6t69.5 24.5t47 52t17.5 91.5v32q0 98 -62.5 135.5t-156.5 37.5h-273q-41 0 -80.5 -7.5t-70.5 -26t-50.5 -52t-19.5 -87.5v-34z" />
<glyph unicode="9" horiz-adv-x="1413" d="M76 928v151q0 111 40 180.5t105.5 107.5t152.5 52.5t179 14.5h321q86 0 168 -21.5t146.5 -70t103.5 -123t39 -181.5v-553q0 -133 -35.5 -226t-97 -150.5t-144.5 -83t-177 -25.5h-723v233h618q41 0 89 7.5t90 27t71 54t29 88.5v186l-658 4q-72 0 -130 28.5t-100 75 t-64.5 104.5t-22.5 120zM338 983q0 -90 58.5 -130t158.5 -40h496v221q0 94 -62.5 132t-159.5 38h-335q-55 0 -86 -14t-46.5 -37t-19.5 -51.5t-4 -57.5v-61z" />
<glyph unicode=":" horiz-adv-x="444" d="M82 0v268h280v-268h-280zM82 590v268h280v-268h-280z" />
<glyph unicode=";" horiz-adv-x="444" d="M82 0v268h280v-227q0 -66 -25.5 -115t-55.5 -84q-37 -39 -82 -69v227h-117zM82 590v268h280v-268h-280z" />
<glyph unicode="&#x3c;" d="M68 612v209l936 463v-246l-668 -327l668 -322v-239z" />
<glyph unicode="=" horiz-adv-x="815" d="M61 442v215h693v-215h-693zM61 805v215h693v-215h-693z" />
<glyph unicode="&#x3e;" d="M68 150v241l673 320l-673 327v246l938 -465v-207z" />
<glyph unicode="?" horiz-adv-x="1118" d="M61 1202v232h490q113 0 206 -13.5t159.5 -57.5t103.5 -127t37 -220q0 -199 -110.5 -303.5t-315.5 -104.5h-25q-121 0 -176 -51t-55 -174v-21h-275v62q0 213 106.5 311.5t342.5 98.5h14q111 0 173.5 34.5t62.5 143.5q0 61 -14.5 98t-44 57.5t-73.5 27.5t-104 7h-502z M102 0v221h273v-221h-273z" />
<glyph unicode="@" horiz-adv-x="1439" d="M78 66v710q0 82 29.5 134.5t79 82t116 40.5t139.5 11h555q68 0 133.5 -10t116.5 -38.5t83 -81t32 -138.5v-411q0 -82 -28.5 -133.5t-79 -81t-117 -41t-140.5 -11.5h-135v43q-29 -18 -64.5 -30.5t-68.5 -12.5h-57q-55 0 -102.5 8.5t-81 32t-53 63.5t-19.5 103q0 86 54 134 t146 48h244q0 59 -26 86q-16 16 -48 20.5t-75 4.5h-254v139h260q152 0 232.5 -82t80.5 -239v-166q66 0 109 29.5t43 107.5v369q0 76 -45 106.5t-121 30.5h-580q-68 0 -117 -28.5t-49 -108.5v-643q0 -74 44 -107t122 -33h852v-176h-846q-68 0 -133 10.5t-116.5 39t-83 81 t-31.5 138.5zM580 293q0 -41 27.5 -51.5t68.5 -10.5h186v123h-196q-55 0 -70.5 -15t-15.5 -46z" />
<glyph unicode="A" horiz-adv-x="1587" d="M47 0l596 1434h315l582 -1434h-291l-145 356h-617l-151 -356h-289zM553 575h485l-235 611z" />
<glyph unicode="B" horiz-adv-x="1421" d="M86 0v1434h713q49 0 85 -2t64.5 -6.5t54 -10.5t54.5 -16q111 -39 168 -128t57 -212q0 -113 -36 -199t-134 -139q227 -84 227 -326q0 -78 -25.5 -141.5t-68.5 -116.5q-33 -41 -71.5 -66.5t-91 -42t-120 -22.5t-159.5 -6h-717zM365 215h436q256 0 256 207q0 104 -62.5 150 t-179.5 46h-450v-403zM365 834h415q111 0 174.5 42t63.5 154q0 57 -18.5 94t-50 58.5t-75 29t-90.5 7.5h-419v-385z" />
<glyph unicode="C" horiz-adv-x="1323" d="M86 395v664q0 90 28.5 154.5t78.5 107.5q72 63 176 88t206 25h674v-234h-647q-43 0 -70.5 -2t-46 -6t-33 -12.5t-28.5 -22.5q-31 -29 -45 -65.5t-14 -79.5v-566q0 -102 63 -155q68 -57 197 -58h626v-233h-628q-135 0 -237.5 21.5t-172.5 72.5q-61 47 -94 120t-33 181z " />
<glyph unicode="D" horiz-adv-x="1452" d="M86 0v1434h799q102 0 193 -20.5t157 -70.5q59 -45 95 -114.5t36 -169.5v-664q0 -104 -28.5 -176t-86.5 -119q-63 -53 -159.5 -76.5t-225.5 -23.5h-780zM365 233h462q260 0 260 213v566q0 59 -19 96t-53 57.5t-77 27.5t-88 7h-485v-967z" />
<glyph unicode="E" horiz-adv-x="1292" d="M86 395v664q0 96 33 162.5t86 109.5q72 59 171 81t199 22h646v-234h-619q-43 0 -70.5 -2t-46 -6t-33 -12.5t-28.5 -22.5q-31 -29 -45 -65.5t-14 -79.5v-172h665v-228h-665v-166q0 -94 49 -145q63 -68 209 -68h598v-233h-598q-139 0 -243 22.5t-173 75.5q-59 47 -90 120 t-31 177z" />
<glyph unicode="F" horiz-adv-x="1284" d="M86 0v1059q0 104 35 175t94 114q68 49 159 67.5t189 18.5h649v-234h-614q-55 0 -101 -10t-77 -37q-55 -47 -55 -141v-172h653v-228h-653v-612h-279z" />
<glyph unicode="G" horiz-adv-x="1435" d="M86 395v664q0 88 27.5 151.5t74.5 106.5q72 66 177.5 91.5t209.5 25.5h779v-234h-752q-43 0 -70.5 -2t-46 -6t-33 -12.5t-28.5 -22.5q-31 -29 -45 -65.5t-14 -79.5v-566q0 -94 49 -145q63 -68 209 -68h469v369h-314v234h576v-836h-768q-117 0 -208 19.5t-155 64.5 q-68 47 -102.5 123t-34.5 188z" />
<glyph unicode="H" horiz-adv-x="1398" d="M86 0v1434h279v-603h669v603h279v-1434h-279v614h-669v-614h-279z" />
<glyph unicode="I" horiz-adv-x="450" d="M86 0v1434h279v-1434h-279z" />
<glyph unicode="J" horiz-adv-x="1214" d="M68 381v223h266v-192q0 -100 65.5 -151.5t182.5 -51.5q268 0 268 213v1012h278v-1049q0 -109 -39.5 -184.5t-114.5 -122.5t-179.5 -67.5t-233.5 -20.5q-102 0 -191 21.5t-157 67.5t-106.5 120.5t-38.5 181.5z" />
<glyph unicode="K" horiz-adv-x="1341" d="M92 0v1434h279v-1434h-279zM375 723l534 -723h344l-579 723l592 711h-342z" />
<glyph unicode="L" horiz-adv-x="1114" d="M86 395v1039h279v-988q0 -104 63 -157q63 -55 193 -56h432v-233h-443q-129 0 -232.5 21.5t-174.5 78.5q-55 45 -86 116t-31 179z" />
<glyph unicode="M" horiz-adv-x="1718" d="M86 0v1434h350l420 -1043l426 1043h350v-1434h-268v1030l-410 -1030h-196l-404 1030v-1030h-268z" />
<glyph unicode="N" horiz-adv-x="1509" d="M86 0v1434h350l709 -1088v1088h278v-1434h-342l-716 1077v-1077h-279z" />
<glyph unicode="O" horiz-adv-x="1542" d="M70 709q0 369 179 555t533 186q346 0 518.5 -181.5t172.5 -557.5q0 -360 -176.5 -541.5t-516.5 -181.5q-356 0 -533 182t-177 539zM360 717q0 -270 100.5 -395t317.5 -125t314.5 122.5t97.5 395.5q0 281 -97.5 404.5t-312.5 123.5q-127 0 -207.5 -42t-128 -113.5 t-66 -168t-18.5 -202.5z" />
<glyph unicode="P" horiz-adv-x="1339" d="M86 0v1434h702q47 0 83 -2t66 -6.5t55.5 -10.5t51.5 -16q109 -41 166.5 -134.5t57.5 -213.5v-50q0 -59 -14.5 -115.5t-43 -102.5t-70.5 -79.5t-96 -52.5q-27 -10 -52 -16t-55 -10t-65.5 -6.5t-83.5 -2.5h-423v-616h-279zM365 844h411q78 0 113 9t63 32q58 49 58 139 q0 86 -58 141q-27 27 -62.5 34t-113.5 7h-411v-362z" />
<glyph unicode="Q" horiz-adv-x="1576" d="M249 1267q179 183 533 183q346 0 518.5 -178t172.5 -555q0 -168 -56.5 -302t-150.5 -206h250v-209h-736q-710 0 -710 713q0 371 179 554zM360 723q0 -270 100.5 -392t317.5 -122t314.5 120t97.5 392q0 141 -23.5 239.5t-74 162t-128.5 92t-184 28.5q-121 0 -201.5 -38 t-129 -106.5t-69 -163.5t-20.5 -212z" />
<glyph unicode="R" horiz-adv-x="1437" d="M88 0v1434h715q90 0 176 -18.5t153.5 -63.5t108.5 -119t41 -184v-48q0 -66 -20.5 -127t-57.5 -110t-92 -83t-125 -46l373 -635h-311l-361 616h-323v-616h-277zM365 844h423q47 0 89.5 6t75 24.5t51 54.5t18.5 95q0 100 -66.5 141t-167.5 41h-423v-362z" />
<glyph unicode="S" horiz-adv-x="1409" d="M78 1028q0 61 17.5 132t73.5 131.5t164.5 101.5t293.5 41h643v-234h-615q-160 0 -233.5 -37t-73.5 -133q0 -102 69.5 -136t227.5 -34h154q123 0 221 -18.5t167.5 -65.5t106.5 -130t37 -214q0 -141 -42 -226t-115.5 -131t-175 -60.5t-222.5 -14.5h-643v233h615 q51 0 105 6.5t100 26t76 57t30 99.5q0 53 -22.5 87t-65.5 53.5t-103.5 26.5t-136.5 7h-153q-152 0 -248.5 31.5t-152.5 88t-77.5 136.5t-21.5 176z" />
<glyph unicode="T" horiz-adv-x="1267" d="M20 1200v234h1227v-234h-469v-1200h-278v1200h-480z" />
<glyph unicode="U" horiz-adv-x="1413" d="M86 383v1051h276v-990q0 -106 75 -159.5t204 -53.5h125q129 0 202.5 53.5t73.5 159.5v990h285v-1051q0 -109 -49 -183.5t-128 -121.5t-177.5 -68.5t-196.5 -21.5h-145q-109 0 -207 23.5t-174 72.5t-120 124t-44 175z" />
<glyph unicode="V" horiz-adv-x="1552" d="M41 1434h293l448 -1162l443 1162h286l-598 -1434h-282z" />
<glyph unicode="W" horiz-adv-x="2131" d="M45 1434h293l278 -1067l318 1067h272l293 -1067l301 1067h287l-463 -1434h-283l-276 1077l-301 -1077h-283z" />
<glyph unicode="X" horiz-adv-x="1413" d="M10 0l535 727l-482 707h322l315 -508l359 508h319l-516 -707l541 -727h-322l-387 539l-364 -539h-320z" />
<glyph unicode="Y" horiz-adv-x="1423" d="M25 1434h301l387 -584l383 584h303l-551 -811v-623h-277v623z" />
<glyph unicode="Z" horiz-adv-x="1269" d="M25 0v244l938 966h-938v224h1220v-256l-909 -965h909v-213h-1220z" />
<glyph unicode="[" horiz-adv-x="688" d="M82 152v1159q0 55 4 94t12 66.5t21.5 48t34.5 41.5q35 37 89 52t165 15h198v-143h-92q-76 0 -107.5 -5t-50.5 -22q-18 -16 -23 -45t-5 -96v-1176q0 -72 6 -98.5t22 -42.5q18 -16 50 -21.5t108 -5.5h92v-143h-198q-53 0 -93.5 3t-70 11.5t-51 21.5t-39.5 34 q-18 20 -31.5 41.5t-23 50t-13.5 66.5t-4 94z" />
<glyph unicode="\" horiz-adv-x="1077" d="M119 1475h217l584 -1516h-226z" />
<glyph unicode="]" horiz-adv-x="700" d="M82 -27h104q63 0 96 3.5t58 23.5q18 14 23.5 42t5.5 99v1176q0 68 -4.5 97.5t-24.5 43.5q-27 18 -58.5 22.5t-95.5 4.5h-104v143h199q61 0 100 -3t66.5 -11t48 -21.5t45.5 -31.5t39 -40t23 -49.5t12 -66.5t3 -94v-1159q0 -55 -4 -94.5t-13 -68t-23.5 -49t-36.5 -40.5 q-25 -23 -46.5 -36.5t-49 -20.5t-65.5 -9t-99 -4h-199v143z" />
<glyph unicode="^" d="M20 733l357 707h317l357 -707h-256l-254 510l-265 -510h-256z" />
<glyph unicode="_" d="M0 -117h1071v-219h-1071v219z" />
<glyph unicode="`" d="M221 1450h252l203 -283h-164z" />
<glyph unicode="a" horiz-adv-x="1136" d="M61 328q0 152 88.5 227.5t235.5 75.5h420q-4 68 -19.5 108.5t-48 61t-81 27t-115.5 6.5h-412v210h422q258 0 385 -131t127 -391v-522h-258v76q-49 -37 -122 -62.5t-204 -25.5q-98 0 -176 15t-131 54t-82 104.5t-29 166.5zM315 309q0 -76 47.5 -97.5t122.5 -21.5h320v242 h-338q-49 0 -79 -8t-46 -24.5t-21.5 -39t-5.5 -51.5z" />
<glyph unicode="b" horiz-adv-x="1155" d="M72 0v1434h258v-390h237q158 0 248 -38q111 -47 168 -140q106 -150 107 -360q0 -172 -76 -303q-33 -57 -80 -103.5t-115 -72.5q-29 -10 -54.5 -18.5t-56 -12.5t-69.5 -6t-90 -2q-59 0 -113.5 27.5t-105.5 72.5v-88h-258zM330 209h219q139 0 203 76q63 84 63 247 q0 303 -283 304h-202v-627z" />
<glyph unicode="c" horiz-adv-x="1036" d="M66 510q0 135 38.5 235.5t110.5 174.5q70 70 159 97t234 27h367v-208h-348q-158 0 -222.5 -75t-64.5 -247q0 -66 10 -115t41 -98q35 -53 93.5 -72.5t156.5 -19.5h334v-209h-367q-154 0 -248 27.5t-161 105.5q-59 68 -96 167t-37 210z" />
<glyph unicode="d" horiz-adv-x="1161" d="M93.5 699q27.5 89 78.5 167q37 55 85 89t102.5 54.5t112.5 27.5t116 7h237v390h258v-1434h-258v88q-47 -43 -110.5 -71.5t-122.5 -28.5q-147 0 -264 47t-187 168q-75 129 -75 299q0 108 27.5 197zM340 532q0 -164 63 -247q64 -76 203 -76h219v627h-202q-283 0 -283 -304z " />
<glyph unicode="e" horiz-adv-x="1118" d="M66 520q0 258 129 397.5t395 139.5h59q94 0 169 -16.5t127 -55.5t80 -106.5t28 -167.5q0 -152 -82 -223.5t-221 -71.5h-410q2 -70 18.5 -110t49 -61.5t82 -27.5t116.5 -6h430v-211h-446q-266 0 -395 132t-129 388zM340 614h332q51 0 81.5 7.5t48 21.5t22.5 34.5t5 47.5 q0 78 -48 97.5t-128 19.5h-47q-68 0 -117 -8.5t-82.5 -32t-50 -64.5t-16.5 -106v-17z" />
<glyph unicode="f" horiz-adv-x="802" d="M25 834v210h186v39q0 90 17.5 158t56.5 109q82 84 260 84h237v-213h-178q-74 0 -103.5 -30t-29.5 -108v-39h303v-210h-303v-834h-260v834h-186z" />
<glyph unicode="g" horiz-adv-x="1169" d="M66 512q0 119 31.5 219t92 173t149.5 113t206 40q84 0 150.5 -23.5t138.5 -81.5v92h258v-993q0 -86 -8.5 -161.5t-55.5 -135.5q-31 -41 -74 -62.5t-91 -30.5t-98 -11t-93 -2h-500v211h502q43 0 73.5 3t49 14t28 34.5t9.5 66.5v23h-226q-272 0 -407 135t-135 377zM340 510 q0 -154 64.5 -226.5t207.5 -72.5h222v620h-209q-86 0 -141.5 -21.5t-87 -62t-44 -100t-12.5 -137.5z" />
<glyph unicode="h" horiz-adv-x="1089" d="M78 0v1440h258v-486q51 41 111.5 72t132.5 31h41q109 0 183.5 -26.5t120.5 -79t66.5 -130.5t20.5 -180v-641h-258v629q0 117 -39 161t-137 44h-242v-834h-258z" />
<glyph unicode="i" horiz-adv-x="413" d="M78 0v1044h258v-1044h-258zM78 1169v265h258v-265h-258z" />
<glyph unicode="j" horiz-adv-x="497" d="M-123 -174h109q55 0 89 6t50 27q16 18 18 51t2 110v1024h261v-985q0 -133 -15.5 -208.5t-50.5 -116.5q-47 -53 -122 -85t-210 -32h-131v209zM145 1169v265h261v-265h-261z" />
<glyph unicode="k" horiz-adv-x="1128" d="M78 0v1434h258v-1434h-258zM342 522l412 -522h313l-416 522l416 522h-313z" />
<glyph unicode="l" horiz-adv-x="413" d="M78 0v1434h258v-1434h-258z" />
<glyph unicode="m" horiz-adv-x="1558" d="M78 0v1044h258v-90q25 23 49.5 42.5t55 32.5t70.5 20.5t97 7.5h47q53 -2 94.5 -18.5t73.5 -53.5q53 35 98.5 53.5t114.5 18.5h37q96 0 152.5 -14.5t97.5 -38.5q20 -12 48 -36t52.5 -63t41 -96t16.5 -139v-670h-258v641q0 117 -24.5 155t-90.5 38h-197v-834h-258v641 q0 96 -19.5 144.5t-84.5 48.5h-213v-834h-258z" />
<glyph unicode="n" horiz-adv-x="1087" d="M78 0v1044h258v-90q49 45 105.5 74t121.5 29h15q139 0 212.5 -31t120.5 -78q98 -96 99 -319v-629h-258v629q0 117 -39 161t-138 44h-239v-834h-258z" />
<glyph unicode="o" horiz-adv-x="1218" d="M66 512q0 129 40.5 230.5t113.5 171t174 106.5t222 37q260 0 398.5 -139.5t138.5 -407.5q0 -127 -41 -224.5t-112.5 -163t-172 -100t-217.5 -34.5q-260 0 -402 134t-142 390zM338 510q0 -141 63.5 -225t206.5 -84q76 0 128 23.5t84 64.5t46.5 99t14.5 126 q0 72 -14.5 133.5t-46.5 105.5t-84 68.5t-128 24.5q-270 0 -270 -336z" />
<glyph unicode="p" horiz-adv-x="1161" d="M78 -383v1427h258v-88q47 43 110.5 72t122.5 29q147 0 264 -47t187 -168q76 -131 76 -303q0 -104 -28 -193.5t-79 -167.5q-37 -55 -85 -89t-102 -54.5t-112.5 -27.5t-116.5 -7h-237v-383h-258zM336 209h203q282 0 282 301q0 76 -11 135.5t-42 101t-82 65.5t-131 24h-219 v-627z" />
<glyph unicode="q" horiz-adv-x="1161" d="M66 539q0 172 75 303q70 121 187 168t264 47q59 0 122.5 -29t110.5 -72v88h258v-1427h-258v383h-237q-57 0 -115.5 7t-113 27.5t-102.5 54.5t-85 89q-51 78 -78.5 167t-27.5 194zM340 512q0 -303 283 -303h202v627h-219q-82 0 -133 -25t-81 -68t-41 -102t-11 -129z" />
<glyph unicode="r" horiz-adv-x="739" d="M78 0v1044h258v-90q51 41 110.5 65.5t118.5 24.5h113v-210h-342v-834h-258z" />
<glyph unicode="s" horiz-adv-x="1116" d="M66 733q0 150 87 230.5t291 80.5h566v-208h-523q-76 0 -120.5 -17.5t-44.5 -89.5q0 -68 38.5 -85t90.5 -17h217q94 0 165.5 -13.5t119.5 -47.5t73 -91t25 -143q0 -90 -20.5 -153.5t-66.5 -103.5t-123 -57.5t-190 -17.5h-573v209h567q66 0 107 17.5t41 78.5q0 57 -36 81 t-122 24h-152q-209 0 -313 78.5t-104 244.5z" />
<glyph unicode="t" horiz-adv-x="833" d="M41 834v210h186v390h258v-390h287v-210h-287v-447q0 -59 6.5 -95t28 -54.5t64.5 -24.5t116 -6h72v-207h-205q-94 0 -159.5 15.5t-105.5 55.5t-57.5 108.5t-17.5 176.5v478h-186z" />
<glyph unicode="u" horiz-adv-x="1089" d="M78 416v628h258v-628q0 -117 39 -161t137 -44h242v833h258v-1044h-258v90q-47 -45 -109.5 -73.5t-134.5 -28.5q-236 0 -334 94q-49 49 -73.5 135t-24.5 199z" />
<glyph unicode="v" horiz-adv-x="1226" d="M41 1044h278l293 -712l299 712h275l-469 -1044h-238z" />
<glyph unicode="w" horiz-adv-x="1886" d="M41 1044h278l252 -712l242 712h260l240 -712l258 712h274l-428 -1044h-237l-242 721l-262 -721h-238z" />
<glyph unicode="x" horiz-adv-x="1202" d="M41 0l408 522l-396 522h307l252 -337l240 337h303l-399 -522l405 -522h-307l-242 338l-266 -338h-305z" />
<glyph unicode="y" horiz-adv-x="1083" d="M78 -143h477h62.5t44 3t31 8t22.5 15q18 18 24 41t9 76h-252q-121 0 -208 28.5t-138 102.5q-27 37 -41.5 75t-21.5 77t-8 79.5t-1 83.5v598h258v-593q0 -143 37 -197q33 -45 143 -45h232v835h258v-938q0 -92 -11.5 -162.5t-38.5 -125.5q-27 -59 -71.5 -93t-99 -51.5 t-114 -21.5t-112.5 -4h-481v209z" />
<glyph unicode="z" horiz-adv-x="1077" d="M70 0v229l618 607h-618v208h938v-231l-625 -604h625v-209h-938z" />
<glyph unicode="{" horiz-adv-x="643" d="M41 653v150q35 6 57.5 18.5t35.5 35t18.5 57t5.5 85.5v230q0 80 11 152.5t47 128t103.5 87t180.5 31.5h102v-143h-33q-57 0 -93 -9.5t-55.5 -29t-25.5 -50t-6 -73.5v-303q1 -95 -24 -158q-6 -16 -14.5 -28.5t-24 -27.5t-43 -34.5t-70.5 -50.5q43 -25 70.5 -41t43 -29.5 t23.5 -27t15 -27.5q25 -72 24 -160v-301q0 -43 6 -73.5t25.5 -50t55.5 -29t93 -9.5h33v-143h-102q-113 0 -180.5 32t-103.5 86t-47 126.5t-11 152.5v232q0 51 -5.5 86t-18.5 56.5t-35.5 33.5t-57.5 18z" />
<glyph unicode="|" d="M414 -543v2155h243v-2155h-243z" />
<glyph unicode="}" horiz-adv-x="643" d="M41 -27h35q55 0 90 9.5t54.5 29t26.5 50t7 73.5v301q0 45 3 85t19 75q8 16 17.5 29.5t27 27t43 28.5t66.5 40q-39 31 -65.5 51.5t-43 34.5t-27 26.5t-18.5 28.5q-14 31 -18 72t-4 88v301q0 43 -7 73.5t-26.5 50t-54.5 29t-90 9.5h-35v143h111q106 0 172.5 -31.5 t102.5 -87t48 -128t12 -152.5v-230q0 -102 29 -142t86 -54v-150q-29 -6 -50.5 -18t-35.5 -33.5t-21.5 -56.5t-7.5 -86v-232q0 -82 -12 -153.5t-48 -125.5t-102.5 -86t-172.5 -32h-111v143z" />
<glyph unicode="~" horiz-adv-x="1433" d="M197 1305q51 127 123.5 205.5t187.5 78.5q57 0 109.5 -17.5t103.5 -39t102 -38.5t107 -17q55 0 92 27.5t70 88.5l147 -84q-31 -57 -64.5 -106t-74.5 -86t-90 -57.5t-113 -20.5q-55 0 -105.5 17.5t-99.5 38t-98 38t-102 17.5q-61 0 -97.5 -43t-58.5 -90z" />
<glyph unicode="&#xa1;" horiz-adv-x="550" d="M150 -383v1085h251v-1085h-251zM150 811v233h251v-233h-251z" />
<glyph unicode="&#xa2;" d="M82 653q0 258 154 410q129 129 362 129h11t16 -2v207h145v-207h219v-199h-219v-645h219v-199h-219v-210h-145v210h-13q-150 2 -239.5 30t-151.5 93q-61 76 -100 176.5t-39 206.5zM358 659q0 -156 61.5 -230.5t205.5 -80.5v641q-66 -4 -104 -13t-66 -34 q-45 -39 -71 -107.5t-26 -175.5z" />
<glyph unicode="&#xa3;" horiz-adv-x="1533" d="M201 0v213h129v395h-129v160h129v76q0 147 16 236t55 157q39 59 108 108.5t138 67.5q90 20 252 21h379v-215h-354q-100 0 -165 -16.5t-104 -61.5q-35 -35 -49 -96.5t-14 -178.5v-98h467v-160h-467v-395h792v-213h-1183z" />
<glyph unicode="&#xa5;" horiz-adv-x="1343" d="M25 1434h294l349 -625l340 625h311l-483 -768h268v-154h-316v-115h316v-155h-316v-242h-260v242h-311v155h311v115h-311v154h272z" />
<glyph unicode="&#xa6;" horiz-adv-x="397" d="M82 -342v887h233v-887h-233zM82 715v887h233v-887h-233z" />
<glyph unicode="&#xa7;" horiz-adv-x="1533" d="M201 545q0 70 24.5 134t79.5 128q-53 57 -76.5 119.5t-23.5 132.5q0 72 28.5 146.5t77.5 121.5q68 68 156 90q25 6 47.5 10.5t48 5.5t57 1h76.5h578v-203h-549q-66 0 -102.5 -4t-65.5 -15q-51 -14 -74.5 -58t-23.5 -95q0 -39 18.5 -75t57.5 -56q33 -16 71.5 -22.5 t104.5 -6.5h155q109 0 168.5 -6t108.5 -23q98 -29 145 -112.5t47 -200.5q0 -88 -23.5 -147.5t-80.5 -122.5q43 -41 67.5 -104.5t24.5 -143.5q0 -199 -129 -293q-51 -33 -115 -55q-16 -10 -36.5 -16.5t-49 -8.5t-67.5 -2h-95h-583v201h565q96 0 152 14q51 25 79.5 64t28.5 90 q0 35 -13 70.5t-40 56.5q-29 23 -74 31t-127 8h-174q-82 0 -138 5t-106 23q-98 31 -149 118t-51 200zM453 555q0 -53 19.5 -85t55.5 -48q35 -14 74 -19.5t111 -5.5h94q47 0 86 3t74 8q111 25 110 145q0 74 -53 111q-25 18 -57 24q-31 4 -72 7t-74 3h-116q-8 0 -21.5 -1 t-32.5 -1l-61 -4q-68 -8 -102.5 -44t-34.5 -93z" />
<glyph unicode="&#xa8;" d="M229 1188v227h213v-227h-213zM631 1188v227h211v-227h-211z" />
<glyph unicode="&#xa9;" horiz-adv-x="1671" d="M102 713q0 152 58.5 286t159 235t234.5 159.5t288 58.5q156 0 289 -58.5t230 -159.5t152.5 -235t55.5 -286q0 -156 -58.5 -289t-159 -230.5t-231.5 -152.5t-278 -55q-154 0 -288 58t-234.5 158.5t-159 231.5t-58.5 279zM258 713q0 -117 44 -222.5t123 -187.5t185.5 -130 t231.5 -48q119 0 224 48t185 130t126 187.5t46 222.5q0 125 -46 232.5t-126 187t-185 126t-224 46.5q-125 0 -231.5 -46.5t-185.5 -126t-123 -187t-44 -232.5zM496 571v318q0 51 15 86t42 59q39 35 93 45.5t108 10.5h346v-154h-332q-35 0 -47 -1t-23 -11q-25 -23 -24 -58 l2 -272q0 -39 22 -59q12 -12 32 -16.5t48 -4.5h322v-156h-326q-137 0 -209 52q-33 23 -51 62.5t-18 98.5z" />
<glyph unicode="&#xaa;" horiz-adv-x="790" d="M82 1014q0 82 57 139q27 29 72 40t123 11h211v8q0 59 -24.5 78t-100.5 19h-307v125h323q90 0 140.5 -9.5t85.5 -54.5q27 -33 37 -69.5t10 -108.5v-361h-351h-55t-35.5 1.5t-28 3.5t-26.5 6q-66 12 -98.5 59t-32.5 113zM248 1016q0 -33 23.5 -48.5t76.5 -15.5h197v125 h-197q-59 0 -79.5 -13t-20.5 -48z" />
<glyph unicode="&#xab;" horiz-adv-x="782" d="M82 410v215l258 256v-242l-131 -125l131 -113v-239zM444 410v215l256 256v-242l-131 -125l131 -113v-239z" />
<glyph unicode="&#xac;" horiz-adv-x="8204" d="M41 598q84 33 234.5 76.5t353.5 70.5q121 16 172 -22.5t14 -157.5q-23 -66 -48.5 -131t-60 -133t-78.5 -141.5t-100 -155.5q-119 88 -219 186q-43 41 -86 89.5t-80 100.5t-63.5 107.5t-38.5 110.5zM129 1018q104 123 263 210t353.5 119.5t415 2t445.5 -147.5 q35 -18 49 -45t17 -51.5t-1 -44t-4 -23.5q-145 25 -314 42.5t-361.5 20.5t-408.5 -15.5t-454 -67.5zM778 -162q35 61 88.5 155.5t108.5 191t104 179t74 123.5q33 51 61.5 95.5t62.5 78t76 55t101 25.5q37 4 74 3t80 -9q-88 -356 -178.5 -570t-172.5 -271q-20 -14 -68 -40 t-112.5 -42.5t-142.5 -14.5t-156 41zM1597 416q0 55 28 96t77 68.5t114.5 41t139.5 13.5q35 0 66.5 -1t56.5 -3q2 8 2 22q0 33 -33 55.5t-88 22.5q-59 0 -106.5 -9t-104.5 -38l23 152q49 16 105 25t134 9q57 0 108.5 -11t89.5 -35.5t60.5 -63.5t22.5 -94q0 -35 -9.5 -78 t-22.5 -94.5t-27.5 -111.5t-22.5 -128h-182l8 84l-2 2v-2q-35 -53 -94.5 -75.5t-124.5 -22.5q-104 0 -161 44t-57 132zM1810 438q0 -20 20.5 -39.5t55.5 -19.5q72 0 115 41t55 102q-14 2 -31.5 2h-27.5q-82 4 -134.5 -20.5t-52.5 -65.5zM2181 23l47 151q23 -6 47.5 -11 t55.5 -5q47 0 79.5 25.5t51.5 72.5l-144 600h230l59 -379h2l221 379h238l-426 -682q-51 -80 -113.5 -128t-171.5 -48q-59 0 -101 7t-75 18zM2978 254l194 868h228l-195 -868h-227zM3332 516q0 80 29.5 144.5t85 111.5t132.5 72.5t173 25.5q82 0 145.5 -20.5t106.5 -57 t65.5 -86t22.5 -106.5q0 -94 -32 -161.5t-87 -111.5t-132 -65.5t-169 -21.5q-90 0 -154.5 21.5t-105.5 59t-60.5 88t-19.5 107.5zM3566 520q0 -61 31.5 -98t90.5 -37q78 0 124 57.5t46 161.5q0 47 -25.5 84t-90.5 37q-41 0 -74 -18.5t-55.5 -48t-34.5 -65.5t-12 -73z M4080 254l102 444q8 41 15.5 79t11.5 79h209l-25 -123h2q29 53 80 95t121 42q23 0 48 -3t48 -11l-53 -184q-23 16 -46.5 20t-56.5 4q-72 0 -113.5 -49t-54.5 -115l-63 -278h-225zM4641 254l190 807h365l14 -543h2l273 543h372l-184 -807h-227l157 661h-2l-342 -661h-219 l-33 661h-2l-151 -661h-213zM5777 416q0 55 28 96t77 68.5t114.5 41t139.5 13.5q35 0 66.5 -1t54.5 -3q4 8 4 22q0 33 -33 55.5t-88 22.5q-61 0 -107.5 -9t-103.5 -38l22 152q49 16 105.5 25t132.5 9q57 0 109.5 -11t90.5 -35.5t60.5 -63.5t22.5 -94q0 -35 -9.5 -78 t-22.5 -94.5t-27.5 -111.5t-22.5 -128h-185l11 84l-2 2v-2q-35 -53 -94.5 -75.5t-125.5 -22.5q-104 0 -160.5 44t-56.5 132zM5990 438q0 -20 20.5 -39.5t55.5 -19.5q72 0 115 41t55 102q-14 2 -31.5 2h-27.5q-82 4 -134.5 -20.5t-52.5 -65.5zM6519 489q0 74 20.5 142.5 t61.5 122t102.5 85t145.5 31.5q86 0 143 -31.5t82 -78.5h4l78 362h221l-174 -778q-6 -27 -9 -49.5t-6 -40.5h-206l18 96h-4q-43 -51 -92 -80.5t-144 -29.5q-53 0 -97 20.5t-75.5 54t-50 78.5t-18.5 96zM6750 524q0 -55 28 -90t81 -35q39 0 70.5 18.5t54 46.5t34 60.5 t11.5 63.5q0 47 -25.5 85t-83.5 38q-41 0 -71.5 -16.5t-53 -42t-34 -59.5t-11.5 -69zM7309 516q0 51 20.5 113.5t66.5 116t120 89t182 35.5q63 0 119 -15t96.5 -47t63 -82t22.5 -118q0 -18 -5 -52t-11 -60h-461q0 -25 8.5 -46.5t28 -37t53 -24.5t84.5 -9q45 0 100.5 10 t102.5 31l-29 -146q-59 -16 -118.5 -25t-108.5 -9q-82 0 -144.5 21.5t-104.5 59t-63.5 88t-21.5 107.5zM7535 612h276q0 49 -23.5 84t-87.5 35q-72 0 -112.5 -38t-52.5 -81zM7987 915q0 35 25.5 62t62.5 27q35 0 61.5 -27t26.5 -62q0 -37 -26.5 -62.5t-61.5 -25.5 q-37 0 -62.5 26t-25.5 62zM8004 915q0 -31 20 -51t51 -20q29 0 49.5 20.5t20.5 50.5q0 29 -20.5 49.5t-49.5 20.5q-31 0 -51 -20.5t-20 -49.5zM8030 874l19 91h47q16 0 20 -10.5t2 -16.5q-4 -16 -18 -20q4 -4 7 -7.5t-1 -15.5q-2 -16 0 -18v-3h-20q-2 6 0 19q6 16 -11 16 h-20l-6 -35h-19zM8059 926h22q14 0 17 12q4 10 -10 10h-23z" />
<glyph unicode="&#xad;" horiz-adv-x="733" d="M61 614v215h611v-215h-611z" />
<glyph unicode="&#xae;" horiz-adv-x="813" d="M31 1071q0 78 29.5 146.5t81 121t121 82t147.5 29.5q80 0 147.5 -29.5t117.5 -82t78.5 -121t28.5 -146.5q0 -80 -29.5 -147.5t-80.5 -117.5t-119 -79t-143 -29q-78 0 -147.5 30t-121 81t-81 118.5t-29.5 143.5zM111 1071q0 -59 22.5 -113.5t62.5 -96.5t94 -66.5 t120 -24.5q61 0 114.5 24.5t94 66.5t64.5 96.5t24 113.5q0 63 -24 118.5t-64.5 96.5t-94 64.5t-114.5 23.5q-66 0 -120 -23.5t-94 -64.5t-62.5 -96t-22.5 -119zM260 899h86v145h60l86 -145h94q-20 35 -43 76t-45 76q29 10 47 34.5t18 57.5q0 35 -10 57.5t-27.5 34.5t-40 17 t-45.5 5h-180v-358zM346 1118v68h90q18 0 31.5 -7.5t13.5 -25.5q0 -23 -13 -29t-32 -6h-90z" />
<glyph unicode="&#xaf;" horiz-adv-x="718" d="M102 1309v153h514v-153h-514z" />
<glyph unicode="&#xb0;" horiz-adv-x="813" d="M82 1102q0 68 25.5 126t69.5 102t104.5 69.5t130.5 25.5q63 0 121.5 -25.5t102.5 -69.5t69.5 -102.5t25.5 -125.5q0 -66 -25.5 -123t-69.5 -99t-102.5 -67t-121.5 -25q-70 0 -130.5 24t-104.5 66t-69.5 99t-25.5 125zM236 1102q0 -70 49 -122t127 -52q72 0 119 52t47 120 q0 76 -47.5 126t-118.5 50q-78 0 -127 -49t-49 -125z" />
<glyph unicode="&#xb1;" d="M68 121v227h938v-227h-938zM68 764v227h348v334h243v-334h347v-227h-347v-342h-243v342h-348z" />
<glyph unicode="&#xb2;" horiz-adv-x="741" d="M44 647v210q0 73 12.5 117t45.5 76q32 33 79.5 47t122.5 14h92q32 0 61 1t51.5 9.5t36.5 27t14 54.5q0 35 -14 54.5t-36.5 29.5t-50 11.5t-54.5 1.5h-348v134h366q60 0 111 -9t89 -34t59.5 -67.5t21.5 -110.5q0 -61 -18.5 -104t-54 -70t-87 -39t-116.5 -12h-82 q-40 0 -68 -5t-46.5 -18.5t-27.5 -37.5t-9 -63v-83h495v-134h-645z" />
<glyph unicode="&#xb3;" horiz-adv-x="708" d="M59 647v134h351q56 0 88.5 19.5t32.5 75.5v15q0 30 -10 48t-27 27t-39 12t-45 3h-244v128h244q26 0 48.5 4.5t38.5 15t25 28.5t9 44v4q0 31 -9.5 49.5t-26.5 28.5t-38.5 13.5t-46.5 3.5h-349v134h377q51 0 96.5 -10t79.5 -33t53 -60t19 -92v-49q0 -43 -15 -78.5 t-41 -62.5q26 -26 41 -60t15 -77v-71q0 -58 -21 -95.5t-56 -59.5t-79.5 -30.5t-91.5 -8.5h-379z" />
<glyph unicode="&#xb4;" d="M385 1167l201 283h245l-282 -283h-164z" />
<glyph unicode="&#xb5;" horiz-adv-x="1075" d="M66 -371v1401h241v-555q0 -82 12.5 -127t34.5 -80q29 -45 78 -69.5t113 -24.5q70 0 121 39q16 10 28.5 25.5t22.5 31.5q29 41 39 87t10 126v547h244v-1030h-244v141q-25 -51 -41 -70.5t-37 -37.5q-61 -55 -149 -56q-92 0 -156 52q-18 16 -31.5 31.5t-44.5 58.5v-490h-241 z" />
<glyph unicode="&#xb6;" horiz-adv-x="1531" d="M150 979q0 129 52 233.5t156 163.5q55 33 129 45.5t179 12.5h694v-215h-141v-1418h-215v1418h-285q-51 0 -82 -2.5t-57 -8.5q-74 -14 -112 -75.5t-38 -147.5q0 -137 75 -200.5t224 -63.5h96v-920h-213v707q-51 2 -89 8t-68.5 14.5t-56 19.5t-50.5 23q-98 45 -148 155 t-50 251z" />
<glyph unicode="&#xb7;" horiz-adv-x="444" d="M82 688v268h280v-268h-280z" />
<glyph unicode="&#xb8;" horiz-adv-x="542" d="M102 23h131v-89h9q86 0 142 -44t56 -142q0 -88 -49 -141t-149 -53h-140v108h136q41 0 56 18.5t15 65.5q0 37 -17.5 58.5t-58.5 21.5h-131v197z" />
<glyph unicode="&#xb9;" horiz-adv-x="356" d="M41 1266v97q25 3 44 7.5t34.5 13t31 20.5t36.5 30h129v-787h-138v619h-137z" />
<glyph unicode="&#xba;" horiz-adv-x="827" d="M82 1122q0 154 90 236t240 82q160 0 246.5 -82t86.5 -238q0 -135 -89 -216t-248 -81q-154 0 -240 81t-86 218zM248 1122q0 -178 162 -178q168 0 168 180q0 190 -168 191q-162 0 -162 -193z" />
<glyph unicode="&#xbb;" horiz-adv-x="784" d="M82 162v239l129 113l-129 125v242l258 -256v-215zM446 162v239l117 113l-117 125v242l256 -256v-215z" />
<glyph unicode="&#xbc;" horiz-adv-x="1296" d="M41 0l821 1434h164l-821 -1434h-164zM61 1266v96q25 2 43.5 7t35 13.5t32 21t35.5 30.5h129v-787h-137v619h-138zM508 156h512v-156h154v156h100v131h-100v260h-154v-260h-342l430 499h-184l-416 -487v-143z" />
<glyph unicode="&#xbd;" horiz-adv-x="1404" d="M41 0l821 1434h164l-821 -1434h-164zM61 1266v96q25 2 43.5 7t35 13.5t32 21t35.5 30.5h129v-787h-137v619h-138zM707 0v211q0 72 12 116t47 76q33 33 80 47.5t123 14.5h92q31 0 59.5 1t52 9t37 26.5t13.5 55.5q0 35 -14.5 54.5t-37 28.5t-50 11t-54.5 2h-348v133h366 q59 0 110.5 -9t89.5 -33.5t59.5 -67.5t21.5 -111q0 -123 -71.5 -174t-204.5 -51h-82q-78 0 -114 -22.5t-36 -100.5v-84h496v-133h-647z" />
<glyph unicode="&#xbe;" horiz-adv-x="1542" d="M49 647v133h350q57 0 89 19.5t32 77.5v14q0 61 -37 75.5t-84 14.5h-243v127h243q53 0 87 19.5t34 72.5v6q0 59 -35.5 76.5t-85.5 17.5h-348v134h377q51 0 96 -9.5t79 -33t53.5 -60.5t19.5 -92v-49q0 -82 -55 -141q55 -55 55 -138v-69q0 -59 -21.5 -96t-56.5 -59.5 t-79 -31t-91 -8.5h-379zM293 0l821 1434h164l-821 -1434h-164zM760 156h512v-156h151v156h103v131h-103v260h-151v-260h-342l430 499h-184l-416 -487v-143z" />
<glyph unicode="&#xbf;" horiz-adv-x="1118" d="M61 35q0 199 110.5 303.5t315.5 104.5h25q121 0 176 51t55 174v21h275v-62q0 -213 -106.5 -311.5t-342.5 -98.5h-14q-111 0 -173.5 -34.5t-62.5 -143.5q0 -61 14.5 -98t44 -57.5t73.5 -27.5t104 -7h502v-232h-490q-113 0 -206 13.5t-159.5 57.5t-103.5 127t-37 220z M743 830v221h273v-221h-273z" />
<glyph unicode="&#xc0;" horiz-adv-x="1574" d="M41 0l596 1434h315l582 -1434h-291l-145 356h-617l-151 -356h-289zM547 575h485l-235 611zM559 1819h252l203 -283h-164z" />
<glyph unicode="&#xc1;" horiz-adv-x="1574" d="M41 0l596 1434h315l582 -1434h-291l-145 356h-617l-151 -356h-289zM547 575h485l-235 611zM606 1536l201 283h245l-282 -283h-164z" />
<glyph unicode="&#xc2;" horiz-adv-x="1574" d="M41 0l596 1434h315l582 -1434h-291l-145 356h-617l-151 -356h-289zM471 1538l207 258h215l211 -258h-176l-146 131l-135 -131h-176zM547 575h485l-235 611z" />
<glyph unicode="&#xc3;" horiz-adv-x="1574" d="M41 0l596 1434h315l582 -1434h-291l-145 356h-617l-151 -356h-289zM403 1585q16 39 37 77t49.5 66.5t65.5 47t86 18.5q39 0 77 -12t75.5 -27.5t75.5 -28t79 -12.5t64.5 16.5t52.5 65.5l106 -59q-23 -39 -44 -76t-48.5 -64.5t-65.5 -44t-91 -16.5q-41 0 -77 13.5t-72 28.5 t-73 28.5t-77 13.5q-47 0 -72 -31.5t-43 -72.5zM547 575h485l-235 611z" />
<glyph unicode="&#xc4;" horiz-adv-x="1574" d="M41 0l596 1434h315l582 -1434h-291l-145 356h-617l-151 -356h-289zM481 1536v227h213v-227h-213zM547 575h485l-235 611zM883 1536v227h211v-227h-211z" />
<glyph unicode="&#xc5;" horiz-adv-x="1574" d="M41 0l596 1434h315l582 -1434h-291l-145 356h-617l-151 -356h-289zM547 575h485l-235 611zM604 1718q0 76 52.5 129t130.5 53q76 0 129 -53t53 -129q0 -78 -53.5 -130t-128.5 -52q-78 0 -130.5 52t-52.5 130zM711 1718q0 -31 21.5 -52.5t54.5 -21.5q31 0 52 21.5t21 52.5 q0 33 -21.5 54.5t-51.5 21.5q-33 0 -54.5 -21.5t-21.5 -54.5z" />
<glyph unicode="&#xc6;" horiz-adv-x="2383" d="M2 0l1143 1434h1198v-234h-610q-125 0 -181.5 -43t-56.5 -145v-172h657v-228h-657v-166q0 -117 69.5 -165t188.5 -48h590v-233h-598q-123 0 -222.5 18.5t-169 60.5t-107.5 110.5t-38 166.5h-575l-289 -356h-342zM768 575h440v570z" />
<glyph unicode="&#xc7;" horiz-adv-x="1296" d="M68 395v664q0 90 28.5 154.5t77.5 107.5q72 63 176.5 88t206.5 25h674v-236h-639q-43 0 -70.5 -2t-46 -6t-33 -13.5t-28.5 -21.5q-59 -59 -60 -145l2 -564q0 -104 62 -155q68 -57 196 -58h619v-233h-438v-66h8q86 0 142 -44t56 -142q0 -88 -49 -141t-149 -53h-139v108 h135q41 0 56 18.5t15 65.5q0 37 -17 58.5t-58 21.5h-131v174h-60q-135 0 -237.5 21.5t-171.5 72.5q-61 47 -94 120t-33 181z" />
<glyph unicode="&#xc8;" horiz-adv-x="1288" d="M82 395v664q0 96 33 162.5t86 109.5q72 59 171 81t199 22h646v-234h-619q-43 0 -70.5 -2t-46 -6t-33 -12.5t-28.5 -22.5q-31 -29 -45 -65.5t-14 -79.5v-172h665v-228h-665v-166q0 -94 49 -145q63 -68 209 -68h598v-233h-598q-139 0 -243 22.5t-173 75.5q-59 47 -90 120 t-31 177zM416 1819h252l203 -283h-164z" />
<glyph unicode="&#xc9;" horiz-adv-x="1288" d="M82 395v664q0 96 33 162.5t86 109.5q72 59 171 81t199 22h646v-234h-619q-43 0 -70.5 -2t-46 -6t-33 -12.5t-28.5 -22.5q-31 -29 -45 -65.5t-14 -79.5v-172h665v-228h-665v-166q0 -94 49 -145q63 -68 209 -68h598v-233h-598q-139 0 -243 22.5t-173 75.5q-59 47 -90 120 t-31 177zM578 1536l201 283h245l-282 -283h-164z" />
<glyph unicode="&#xca;" horiz-adv-x="1288" d="M82 395v664q0 96 33 162.5t86 109.5q72 59 171 81t199 22h646v-234h-619q-43 0 -70.5 -2t-46 -6t-33 -12.5t-28.5 -22.5q-31 -29 -45 -65.5t-14 -79.5v-172h665v-228h-665v-166q0 -94 49 -145q63 -68 209 -68h598v-233h-598q-139 0 -243 22.5t-173 75.5q-59 47 -90 120 t-31 177zM344 1538l207 258h215l211 -258h-176l-146 131l-135 -131h-176z" />
<glyph unicode="&#xcb;" horiz-adv-x="1288" d="M82 395v664q0 96 33 162.5t86 109.5q72 59 171 81t199 22h646v-234h-619q-43 0 -70.5 -2t-46 -6t-33 -12.5t-28.5 -22.5q-31 -29 -45 -65.5t-14 -79.5v-172h665v-228h-665v-166q0 -94 49 -145q63 -68 209 -68h598v-233h-598q-139 0 -243 22.5t-173 75.5q-59 47 -90 120 t-31 177zM391 1538v227h213v-227h-213zM793 1538v227h211v-227h-211z" />
<glyph unicode="&#xcc;" horiz-adv-x="460" d="M-43 1819h252l203 -283h-164zM92 0v1434h279v-1434h-279z" />
<glyph unicode="&#xcd;" horiz-adv-x="460" d="M51 1538l201 283h245l-282 -283h-164zM92 0v1434h279v-1434h-279z" />
<glyph unicode="&#xce;" horiz-adv-x="460" d="M-86 1536l207 258h215l211 -258h-176l-146 131l-135 -131h-176zM92 0v1434h279v-1434h-279z" />
<glyph unicode="&#xcf;" horiz-adv-x="460" d="M-76 1538v227h213v-227h-213zM92 0v1434h279v-1434h-279zM326 1538v227h211v-227h-211z" />
<glyph unicode="&#xd0;" horiz-adv-x="1595" d="M82 635v174h151v625h799q102 0 193.5 -20.5t156.5 -70.5q59 -45 95 -114.5t36 -169.5v-664q0 -104 -28.5 -176t-85.5 -119q-63 -53 -159.5 -76.5t-225.5 -23.5h-781v635h-151zM512 233h457q260 0 260 213v564q0 59 -19.5 96t-53.5 57.5t-77 27.5t-88 7h-479v-389h180 v-174h-180v-402z" />
<glyph unicode="&#xd1;" horiz-adv-x="1513" d="M88 0v1434h350l709 -1088v1088h278v-1434h-342l-716 1077v-1077h-279zM372 1579q16 39 37 77t49.5 66.5t65.5 47t86 18.5q39 0 77 -12t75.5 -27.5t75.5 -28t79 -12.5t64.5 16.5t52.5 65.5l106 -59q-23 -39 -44 -76t-48.5 -64.5t-65.5 -44t-91 -16.5q-41 0 -77 13.5 t-72 28.5t-73 28.5t-77 13.5q-47 0 -72 -31.5t-43 -72.5z" />
<glyph unicode="&#xd2;" horiz-adv-x="1538" d="M68 709q0 369 179 555t533 186q346 0 518.5 -181.5t172.5 -557.5q0 -360 -176.5 -541.5t-516.5 -181.5q-356 0 -533 182t-177 539zM358 717q0 -270 100.5 -395t317.5 -125t314.5 122.5t97.5 395.5q0 281 -97.5 404.5t-312.5 123.5q-127 0 -207.5 -42t-128 -113.5 t-66 -168t-18.5 -202.5zM467 1819h252l203 -283h-164z" />
<glyph unicode="&#xd3;" horiz-adv-x="1538" d="M68 709q0 369 179 555t533 186q346 0 518.5 -181.5t172.5 -557.5q0 -360 -176.5 -541.5t-516.5 -181.5q-356 0 -533 182t-177 539zM358 717q0 -270 100.5 -395t317.5 -125t314.5 122.5t97.5 395.5q0 281 -97.5 404.5t-312.5 123.5q-127 0 -207.5 -42t-128 -113.5 t-66 -168t-18.5 -202.5zM623 1536l201 283h245l-282 -283h-164z" />
<glyph unicode="&#xd4;" horiz-adv-x="1538" d="M68 709q0 369 179 555t533 186q346 0 518.5 -181.5t172.5 -557.5q0 -360 -176.5 -541.5t-516.5 -181.5q-356 0 -533 182t-177 539zM358 717q0 -270 100.5 -395t317.5 -125t314.5 122.5t97.5 395.5q0 281 -97.5 404.5t-312.5 123.5q-127 0 -207.5 -42t-128 -113.5 t-66 -168t-18.5 -202.5zM453 1538l207 258h215l211 -258h-176l-146 131l-135 -131h-176z" />
<glyph unicode="&#xd5;" horiz-adv-x="1538" d="M68 709q0 369 179 555t533 186q346 0 518.5 -181.5t172.5 -557.5q0 -360 -176.5 -541.5t-516.5 -181.5q-356 0 -533 182t-177 539zM358 717q0 -270 100.5 -395t317.5 -125t314.5 122.5t97.5 395.5q0 281 -97.5 404.5t-312.5 123.5q-127 0 -207.5 -42t-128 -113.5 t-66 -168t-18.5 -202.5zM385 1585q16 39 37 77t49.5 66.5t65.5 47t86 18.5q39 0 77 -12t75.5 -27.5t75.5 -28t79 -12.5t64.5 16.5t52.5 65.5l106 -59q-23 -39 -44 -76t-48.5 -64.5t-65.5 -44t-91 -16.5q-41 0 -77 13.5t-72 28.5t-73 28.5t-77 13.5q-47 0 -72 -31.5 t-43 -72.5z" />
<glyph unicode="&#xd6;" horiz-adv-x="1538" d="M68 709q0 369 179 555t533 186q346 0 518.5 -181.5t172.5 -557.5q0 -360 -176.5 -541.5t-516.5 -181.5q-356 0 -533 182t-177 539zM358 717q0 -270 100.5 -395t317.5 -125t314.5 122.5t97.5 395.5q0 281 -97.5 404.5t-312.5 123.5q-127 0 -207.5 -42t-128 -113.5 t-66 -168t-18.5 -202.5zM462 1536v227h213v-227h-213zM864 1536v227h211v-227h-211z" />
<glyph unicode="&#xd7;" horiz-adv-x="919" d="M61 352l271 342l-262 350h262l133 -186l127 186h262l-264 -350l268 -342h-264l-131 178l-146 -178h-256z" />
<glyph unicode="&#xd8;" horiz-adv-x="1507" d="M51 705q0 371 178.5 557t534.5 186q117 0 211 -19.5t180 -66.5l78 100h223l-164 -205q162 -184 162 -548q0 -723 -694 -723q-61 0 -103.5 3t-91.5 13q-47 10 -93 25.5t-105 40.5l-82 -97h-222l158 205q-72 76 -121 221q-49 150 -49 308zM342 711q0 -195 59 -330l605 797 q-66 33 -121.5 48t-120.5 15q-104 0 -182 -27.5t-125 -87.5q-115 -111 -115 -415zM514 248q68 -31 121 -42t129 -11q215 0 309 123.5t94 394.5q0 199 -57 327z" />
<glyph unicode="&#xd9;" horiz-adv-x="1404" d="M82 383v1051h276v-990q0 -106 75 -159.5t204 -53.5h125q129 0 202.5 53.5t73.5 159.5v990h285v-1051q0 -109 -49 -183.5t-128 -121.5t-177.5 -68.5t-196.5 -21.5h-145q-109 0 -207 23.5t-174 72.5t-120 124t-44 175zM387 1819h252l203 -283h-164z" />
<glyph unicode="&#xda;" horiz-adv-x="1404" d="M82 383v1051h276v-990q0 -106 75 -159.5t204 -53.5h125q129 0 202.5 53.5t73.5 159.5v990h285v-1051q0 -109 -49 -183.5t-128 -121.5t-177.5 -68.5t-196.5 -21.5h-145q-109 0 -207 23.5t-174 72.5t-120 124t-44 175zM559 1536l201 283h245l-282 -283h-164z" />
<glyph unicode="&#xdb;" horiz-adv-x="1404" d="M82 383v1051h276v-990q0 -106 75 -159.5t204 -53.5h125q129 0 202.5 53.5t73.5 159.5v990h285v-1051q0 -109 -49 -183.5t-128 -121.5t-177.5 -68.5t-196.5 -21.5h-145q-109 0 -207 23.5t-174 72.5t-120 124t-44 175zM385 1536l207 258h215l211 -258h-176l-146 131 l-135 -131h-176z" />
<glyph unicode="&#xdc;" horiz-adv-x="1404" d="M82 383v1051h276v-990q0 -106 75 -159.5t204 -53.5h125q129 0 202.5 53.5t73.5 159.5v990h285v-1051q0 -109 -49 -183.5t-128 -121.5t-177.5 -68.5t-196.5 -21.5h-145q-109 0 -207 23.5t-174 72.5t-120 124t-44 175zM395 1536v227h213v-227h-213zM797 1536v227h211v-227 h-211z" />
<glyph unicode="&#xdd;" horiz-adv-x="1497" d="M62 1434h301l387 -584l383 584h303l-551 -811v-623h-277v623zM602 1536l201 283h245l-282 -283h-164z" />
<glyph unicode="&#xde;" horiz-adv-x="1341" d="M88 0v1434h279v-275h424q47 0 82.5 -2t65.5 -6t55.5 -10t52.5 -17q109 -41 166 -134t57 -214v-49q0 -59 -14.5 -115.5t-43 -102.5t-70.5 -80t-95 -52q-27 -10 -52.5 -16.5t-55.5 -10.5t-65.5 -6t-82.5 -2h-424v-342h-279zM367 569h411q78 0 113 8.5t63 32.5q58 46 58 140 q0 86 -58 141q-27 27 -62.5 34t-113.5 7h-411v-363z" />
<glyph unicode="&#xdf;" horiz-adv-x="1161" d="M86 0v1434h584q80 0 151.5 -19.5t127 -58.5t88 -98.5t32.5 -141.5v-49q0 -66 -12.5 -112t-30.5 -77.5t-40.5 -54t-45.5 -41.5q68 -41 103.5 -98t35.5 -149v-240q0 -154 -100 -224.5t-309 -70.5h-217v244h217q47 0 76.5 14t45 33.5t20.5 41t5 38.5v164q0 14 -5 35.5 t-20.5 42t-45 35t-76.5 14.5h-217v233h190q86 0 127 37t41 127q0 86 -35 122t-133 36h-278v-1217h-279z" />
<glyph unicode="&#xe0;" horiz-adv-x="1146" d="M71 328q0 152 88.5 227.5t235.5 75.5h420q-4 68 -19.5 108.5t-48 61t-81 27t-115.5 6.5h-412v210h422q258 0 385 -131t127 -391v-522h-258v76q-49 -37 -122 -62.5t-204 -25.5q-98 0 -176 15t-131 54t-82 104.5t-29 166.5zM264 1450h252l203 -283h-164zM325 309 q0 -76 47.5 -97.5t122.5 -21.5h320v242h-338q-49 0 -79 -8t-46 -24.5t-21.5 -39t-5.5 -51.5z" />
<glyph unicode="&#xe1;" horiz-adv-x="1146" d="M71 328q0 152 88.5 227.5t235.5 75.5h420q-4 68 -19.5 108.5t-48 61t-81 27t-115.5 6.5h-412v210h422q258 0 385 -131t127 -391v-522h-258v76q-49 -37 -122 -62.5t-204 -25.5q-98 0 -176 15t-131 54t-82 104.5t-29 166.5zM325 309q0 -76 47.5 -97.5t122.5 -21.5h320v242 h-338q-49 0 -79 -8t-46 -24.5t-21.5 -39t-5.5 -51.5zM350 1167l201 283h245l-282 -283h-164z" />
<glyph unicode="&#xe2;" horiz-adv-x="1146" d="M71 328q0 152 88.5 227.5t235.5 75.5h420q-4 68 -19.5 108.5t-48 61t-81 27t-115.5 6.5h-412v210h422q258 0 385 -131t127 -391v-522h-258v76q-49 -37 -122 -62.5t-204 -25.5q-98 0 -176 15t-131 54t-82 104.5t-29 166.5zM256 1196l207 258h215l211 -258h-176l-146 131 l-135 -131h-176zM325 309q0 -76 47.5 -97.5t122.5 -21.5h320v242h-338q-49 0 -79 -8t-46 -24.5t-21.5 -39t-5.5 -51.5z" />
<glyph unicode="&#xe3;" horiz-adv-x="1146" d="M71 328q0 152 88.5 227.5t235.5 75.5h420q-4 68 -19.5 108.5t-48 61t-81 27t-115.5 6.5h-412v210h422q258 0 385 -131t127 -391v-522h-258v76q-49 -37 -122 -62.5t-204 -25.5q-98 0 -176 15t-131 54t-82 104.5t-29 166.5zM188 1245q16 39 37 77t49.5 66.5t65.5 47 t86 18.5q39 0 77 -12t75.5 -27.5t75.5 -28t79 -12.5t64.5 16.5t52.5 65.5l106 -59q-23 -39 -44 -76t-48.5 -64.5t-65.5 -44t-91 -16.5q-41 0 -77 13.5t-72 28.5t-73 28.5t-77 13.5q-47 0 -72 -31.5t-43 -72.5zM325 309q0 -76 47.5 -97.5t122.5 -21.5h320v242h-338 q-49 0 -79 -8t-46 -24.5t-21.5 -39t-5.5 -51.5z" />
<glyph unicode="&#xe4;" horiz-adv-x="1146" d="M71 328q0 152 88.5 227.5t235.5 75.5h420q-4 68 -19.5 108.5t-48 61t-81 27t-115.5 6.5h-412v210h422q258 0 385 -131t127 -391v-522h-258v76q-49 -37 -122 -62.5t-204 -25.5q-98 0 -176 15t-131 54t-82 104.5t-29 166.5zM266 1188v227h213v-227h-213zM325 309 q0 -76 47.5 -97.5t122.5 -21.5h320v242h-338q-49 0 -79 -8t-46 -24.5t-21.5 -39t-5.5 -51.5zM668 1188v227h211v-227h-211z" />
<glyph unicode="&#xe5;" horiz-adv-x="1146" d="M71 328q0 152 88.5 227.5t235.5 75.5h420q-4 68 -19.5 108.5t-48 61t-81 27t-115.5 6.5h-412v210h422q258 0 385 -131t127 -391v-522h-258v76q-49 -37 -122 -62.5t-204 -25.5q-98 0 -176 15t-131 54t-82 104.5t-29 166.5zM325 309q0 -76 47.5 -97.5t122.5 -21.5h320v242 h-338q-49 0 -79 -8t-46 -24.5t-21.5 -39t-5.5 -51.5zM370 1370q0 76 52.5 129t130.5 53q76 0 129 -53t53 -129q0 -78 -53.5 -130t-128.5 -52q-78 0 -130.5 52t-52.5 130zM477 1370q0 -31 21.5 -52.5t54.5 -21.5q31 0 52 21.5t21 52.5q0 33 -21.5 54.5t-51.5 21.5 q-33 0 -54.5 -21.5t-21.5 -54.5z" />
<glyph unicode="&#xe6;" horiz-adv-x="1851" d="M61 334q0 152 88.5 221.5t235.5 69.5h420q-4 68 -19.5 110.5t-48 66t-81 32t-115.5 8.5h-412v202h422q143 0 235.5 -40.5t157.5 -151.5q59 111 148.5 151.5t234.5 40.5h59q94 0 169 -14t127.5 -51t80 -102.5t27.5 -165.5q0 -152 -82 -218.5t-221 -66.5h-410 q2 -70 18.5 -113t49.5 -67.5t82 -33.5t116 -9h431v-203h-447q-74 0 -130 9t-101 28.5t-82 53.5t-72 83q-63 -92 -160.5 -133t-206.5 -41h-96q-98 0 -176 14.5t-131 52t-82 102t-29 165.5zM315 315q0 -37 12.5 -59.5t35 -34.5t54.5 -15t68 -3h320v223h-338q-98 0 -125 -26.5 t-27 -84.5zM1077 625h332q51 0 82 5t48 17t22.5 31.5t5.5 46.5q0 78 -48.5 97.5t-127.5 19.5h-48q-68 0 -116.5 -8.5t-82.5 -32t-50.5 -64.5t-16.5 -106v-6z" />
<glyph unicode="&#xe7;" horiz-adv-x="1036" d="M66 510q0 535 542 534h367v-208h-348q-158 0 -222.5 -75t-64.5 -247q0 -166 74.5 -235.5t226.5 -69.5h334v-209h-305v-66h8q86 0 142.5 -44t56.5 -142q0 -88 -49.5 -141t-149.5 -53h-139v108h135q41 0 56 18.5t15 65.5q0 37 -17 58.5t-58 21.5h-131v176q-229 16 -351 139 t-122 369z" />
<glyph unicode="&#xe8;" horiz-adv-x="1124" d="M72 520q0 258 129 397.5t395 139.5h59q94 0 169 -16.5t127 -55.5t80 -106.5t28 -167.5q0 -152 -82 -223.5t-221 -71.5h-410q2 -70 18.5 -110t49 -61.5t82 -27.5t116.5 -6h430v-211h-446q-266 0 -395 132t-129 388zM293 1450h252l203 -283h-164zM346 614h332 q51 0 81.5 7.5t48 21.5t22.5 34.5t5 47.5q0 78 -48 97.5t-128 19.5h-47q-68 0 -117 -8.5t-82.5 -32t-50 -64.5t-16.5 -106v-17z" />
<glyph unicode="&#xe9;" horiz-adv-x="1124" d="M72 520q0 258 129 397.5t395 139.5h59q94 0 169 -16.5t127 -55.5t80 -106.5t28 -167.5q0 -152 -82 -223.5t-221 -71.5h-410q2 -70 18.5 -110t49 -61.5t82 -27.5t116.5 -6h430v-211h-446q-266 0 -395 132t-129 388zM346 614h332q51 0 81.5 7.5t48 21.5t22.5 34.5t5 47.5 q0 78 -48 97.5t-128 19.5h-47q-68 0 -117 -8.5t-82.5 -32t-50 -64.5t-16.5 -106v-17zM442 1167l201 283h245l-282 -283h-164z" />
<glyph unicode="&#xea;" horiz-adv-x="1124" d="M72 520q0 258 129 397.5t395 139.5h59q94 0 169 -16.5t127 -55.5t80 -106.5t28 -167.5q0 -152 -82 -223.5t-221 -71.5h-410q2 -70 18.5 -110t49 -61.5t82 -27.5t116.5 -6h430v-211h-446q-266 0 -395 132t-129 388zM287 1196l207 258h215l211 -258h-176l-146 131 l-135 -131h-176zM346 614h332q51 0 81.5 7.5t48 21.5t22.5 34.5t5 47.5q0 78 -48 97.5t-128 19.5h-47q-68 0 -117 -8.5t-82.5 -32t-50 -64.5t-16.5 -106v-17z" />
<glyph unicode="&#xeb;" horiz-adv-x="1124" d="M72 520q0 258 129 397.5t395 139.5h59q94 0 169 -16.5t127 -55.5t80 -106.5t28 -167.5q0 -152 -82 -223.5t-221 -71.5h-410q2 -70 18.5 -110t49 -61.5t82 -27.5t116.5 -6h430v-211h-446q-266 0 -395 132t-129 388zM297 1188v227h213v-227h-213zM346 614h332 q51 0 81.5 7.5t48 21.5t22.5 34.5t5 47.5q0 78 -48 97.5t-128 19.5h-47q-68 0 -117 -8.5t-82.5 -32t-50 -64.5t-16.5 -106v-17zM699 1188v227h211v-227h-211z" />
<glyph unicode="&#xec;" horiz-adv-x="516" d="M-20 1450h251l203 -283h-164zM137 0v1051h260v-1051h-260z" />
<glyph unicode="&#xed;" horiz-adv-x="507" d="M82 1167l201 283h245l-282 -283h-164zM113 0v1051h260v-1051h-260z" />
<glyph unicode="&#xee;" horiz-adv-x="550" d="M-41 1196l207 258h215l211 -258h-176l-146 131l-135 -131h-176zM146 0v1051h260v-1051h-260z" />
<glyph unicode="&#xef;" horiz-adv-x="571" d="M-21 1188v227h213v-227h-213zM156 0v1051h260v-1051h-260zM381 1188v227h211v-227h-211z" />
<glyph unicode="&#xf0;" horiz-adv-x="1130" d="M61 467q0 100 34 184t94.5 145.5t141.5 95.5t175 34q92 0 153.5 -26t126.5 -83q-37 88 -98 155.5t-137 117.5l-246 -125l-49 90l182 94q-66 29 -133 45t-133 23l31 215q160 -16 277.5 -53.5t215.5 -98.5l224 115l49 -92l-178 -91l10 -8q129 -123 198.5 -280.5 t69.5 -354.5q0 -137 -36 -245.5t-103.5 -184.5t-162.5 -116.5t-214 -40.5q-100 0 -189.5 37.5t-157 104t-106.5 155t-39 188.5zM313 461q0 -57 19.5 -104.5t53.5 -81t77 -53t92 -19.5q55 0 102.5 21.5t80 57t51 84t18.5 101.5q0 117 -69.5 183.5t-180.5 66.5 q-109 -8 -176.5 -77t-67.5 -179z" />
<glyph unicode="&#xf1;" horiz-adv-x="1077" d="M72 0v1044h258v-90q49 45 105.5 74t121.5 29h15q139 0 212.5 -31t120.5 -78q98 -96 99 -319v-629h-258v629q0 117 -39 161t-138 44h-239v-834h-258zM147 1245q16 39 37 77t49.5 66.5t65.5 47t86 18.5q39 0 77 -12t75.5 -27.5t75.5 -28t79 -12.5t64.5 16.5t52.5 65.5 l106 -59q-23 -39 -44 -76t-48.5 -64.5t-65.5 -44t-91 -16.5q-41 0 -77 13.5t-72 28.5t-73 28.5t-77 13.5q-47 0 -72 -31.5t-43 -72.5z" />
<glyph unicode="&#xf2;" horiz-adv-x="1218" d="M66 512q0 129 40.5 230.5t113.5 171t174 106.5t222 37q260 0 398.5 -139.5t138.5 -407.5q0 -127 -41 -224.5t-112.5 -163t-172 -100t-217.5 -34.5q-260 0 -402 134t-142 390zM278 1450h252l203 -283h-164zM338 510q0 -141 63.5 -225t206.5 -84q76 0 128 23.5t84 64.5 t46.5 99t14.5 126q0 72 -14.5 133.5t-46.5 105.5t-84 68.5t-128 24.5q-270 0 -270 -336z" />
<glyph unicode="&#xf3;" horiz-adv-x="1218" d="M66 512q0 129 40.5 230.5t113.5 171t174 106.5t222 37q260 0 398.5 -139.5t138.5 -407.5q0 -127 -41 -224.5t-112.5 -163t-172 -100t-217.5 -34.5q-260 0 -402 134t-142 390zM338 510q0 -141 63.5 -225t206.5 -84q76 0 128 23.5t84 64.5t46.5 99t14.5 126 q0 72 -14.5 133.5t-46.5 105.5t-84 68.5t-128 24.5q-270 0 -270 -336zM487 1167l201 283h245l-282 -283h-164z" />
<glyph unicode="&#xf4;" horiz-adv-x="1218" d="M66 512q0 129 40.5 230.5t113.5 171t174 106.5t222 37q260 0 398.5 -139.5t138.5 -407.5q0 -127 -41 -224.5t-112.5 -163t-172 -100t-217.5 -34.5q-260 0 -402 134t-142 390zM295 1196l207 258h215l211 -258h-176l-146 131l-135 -131h-176zM338 510q0 -141 63.5 -225 t206.5 -84q76 0 128 23.5t84 64.5t46.5 99t14.5 126q0 72 -14.5 133.5t-46.5 105.5t-84 68.5t-128 24.5q-270 0 -270 -336z" />
<glyph unicode="&#xf5;" horiz-adv-x="1218" d="M66 512q0 129 40.5 230.5t113.5 171t174 106.5t222 37q260 0 398.5 -139.5t138.5 -407.5q0 -127 -41 -224.5t-112.5 -163t-172 -100t-217.5 -34.5q-260 0 -402 134t-142 390zM225 1245q16 39 37 77t49.5 66.5t65.5 47t86 18.5q39 0 77 -12t75.5 -27.5t75.5 -28t79 -12.5 t64.5 16.5t52.5 65.5l106 -59q-23 -39 -44 -76t-48.5 -64.5t-65.5 -44t-91 -16.5q-41 0 -77 13.5t-72 28.5t-73 28.5t-77 13.5q-47 0 -72 -31.5t-43 -72.5zM338 510q0 -141 63.5 -225t206.5 -84q76 0 128 23.5t84 64.5t46.5 99t14.5 126q0 72 -14.5 133.5t-46.5 105.5 t-84 68.5t-128 24.5q-270 0 -270 -336z" />
<glyph unicode="&#xf6;" horiz-adv-x="1218" d="M66 512q0 129 40.5 230.5t113.5 171t174 106.5t222 37q260 0 398.5 -139.5t138.5 -407.5q0 -127 -41 -224.5t-112.5 -163t-172 -100t-217.5 -34.5q-260 0 -402 134t-142 390zM303 1188v227h213v-227h-213zM338 510q0 -141 63.5 -225t206.5 -84q76 0 128 23.5t84 64.5 t46.5 99t14.5 126q0 72 -14.5 133.5t-46.5 105.5t-84 68.5t-128 24.5q-270 0 -270 -336zM705 1188v227h211v-227h-211z" />
<glyph unicode="&#xf7;" d="M68 612v228h938v-228h-938zM391 356q0 59 41 100.5t109 41.5q59 0 98 -41t39 -101q0 -68 -39 -108.5t-98 -40.5q-68 0 -109 40t-41 109zM391 1094q0 63 41 107t109 44q59 0 98 -44t39 -107q0 -57 -39 -99.5t-98 -42.5q-68 0 -109 42t-41 100z" />
<glyph unicode="&#xf8;" horiz-adv-x="1191" d="M31 -23l147 173q-16 16 -22 23t-13 17q-49 53 -70.5 142.5t-21.5 177.5q0 266 147.5 406.5t411.5 140.5q74 0 109 -10l133 -35q16 -6 21.5 -8.5t15.5 -8.5l69 72h197l-139 -172q117 -135 117 -383q0 -252 -140.5 -388t-398.5 -136q-92 0 -156.5 14t-144.5 49l-64 -74 h-198zM299 510q0 -57 10 -97t31 -81l405 497q-76 35 -149 35q-297 0 -297 -354zM440 215q59 -33 158 -33q141 0 215 85t74 247q0 68 -9.5 112t-27.5 87z" />
<glyph unicode="&#xf9;" horiz-adv-x="1077" d="M72 416v628h258v-628q0 -117 39 -161t137 -44h242v833h258v-1044h-258v90q-47 -45 -109.5 -73.5t-134.5 -28.5q-236 0 -334 94q-49 49 -73.5 135t-24.5 199zM209 1450h252l203 -283h-164z" />
<glyph unicode="&#xfa;" horiz-adv-x="1077" d="M72 416v628h258v-628q0 -117 39 -161t137 -44h242v833h258v-1044h-258v90q-47 -45 -109.5 -73.5t-134.5 -28.5q-236 0 -334 94q-49 49 -73.5 135t-24.5 199zM418 1167l201 283h245l-282 -283h-164z" />
<glyph unicode="&#xfb;" horiz-adv-x="1077" d="M72 416v628h258v-628q0 -117 39 -161t137 -44h242v833h258v-1044h-258v90q-47 -45 -109.5 -73.5t-134.5 -28.5q-236 0 -334 94q-49 49 -73.5 135t-24.5 199zM221 1196l207 258h215l211 -258h-176l-146 131l-135 -131h-176z" />
<glyph unicode="&#xfc;" horiz-adv-x="1077" d="M72 416v628h258v-628q0 -117 39 -161t137 -44h242v833h258v-1044h-258v90q-47 -45 -109.5 -73.5t-134.5 -28.5q-236 0 -334 94q-49 49 -73.5 135t-24.5 199zM231 1188v227h213v-227h-213zM633 1188v227h211v-227h-211z" />
<glyph unicode="&#xfd;" horiz-adv-x="1093" d="M82 -143h477h62.5t44 3t31 8t22.5 15q18 18 24 41t9 76h-252q-121 0 -208 28.5t-138 102.5q-27 37 -41.5 75t-21.5 77t-8 79.5t-1 83.5v598h258v-593q0 -143 37 -197q33 -45 143 -45h232v835h258v-938q0 -92 -11.5 -162.5t-38.5 -125.5q-27 -59 -71.5 -93t-99 -51.5 t-114 -21.5t-112.5 -4h-481v209zM324 1167l201 283h245l-282 -283h-164z" />
<glyph unicode="&#xfe;" horiz-adv-x="1161" d="M78 -383v1817h260v-473q51 37 110.5 62.5t106.5 25.5q51 0 90 -2.5t71 -6.5t59.5 -11t58.5 -19q61 -23 107 -71t79 -105q76 -131 76 -299q0 -209 -82 -330q-41 -61 -86 -100t-97.5 -63t-116 -33t-141.5 -9h-237v-383h-258zM336 209h203q283 0 282 305q0 166 -64.5 246 t-201.5 80h-219v-631z" />
<glyph unicode="&#xff;" horiz-adv-x="1208" d="M135 -162h477q70 0 106 5t60 22q23 16 29 45t10 90h-268h-61.5t-38.5 2q-72 6 -138.5 37t-105.5 88q-41 51 -55 111q-8 35 -11.5 85t-3.5 142v579h242v-595q0 -78 7 -128.5t28.5 -79t59.5 -38.5t99 -10h246v851h242v-946q0 -92 -12.5 -161.5t-36.5 -124.5 q-55 -113 -203 -152q-37 -8 -80 -10t-111 -2h-481v190zM293 1188v227h211v-227h-211zM694 1188v227h209v-227h-209z" />
<glyph unicode="&#x152;" horiz-adv-x="2400" d="M70 709q0 369 179 555t533 186q207 0 331 -64.5t202 -177.5q66 111 151.5 168.5t216.5 57.5h646v-234h-611q-43 0 -70.5 -2t-46 -6t-33 -13.5t-28.5 -21.5q-59 -59 -59 -145v-172h657v-228h-657v-166q0 -94 49 -145q63 -68 209 -68h590v-233h-598q-90 0 -155 13.5 t-115 41t-90 70.5t-81 102q-86 -111 -211 -175t-299 -64q-356 0 -533 182t-177 539zM360 717q0 -270 100.5 -395t317.5 -125t314.5 122.5t97.5 395.5q0 281 -97.5 404.5t-312.5 123.5q-127 0 -207.5 -42t-128 -113.5t-66 -168t-18.5 -202.5z" />
<glyph unicode="&#x153;" horiz-adv-x="1951" d="M66 512q0 129 39.5 230.5t110.5 171t166 106.5t206 37q170 0 268 -53.5t166 -157.5q66 115 166 156.5t235 41.5h60q94 0 168.5 -14t127 -51t80 -102.5t27.5 -165.5q0 -152 -82 -223.5t-221 -71.5h-409q2 -70 18 -110t49 -61.5t82 -27.5t117 -6h430v-211h-447 q-137 0 -238.5 48t-166.5 155q-150 -215 -430 -215q-242 0 -382 134t-140 390zM342 510q0 -141 63.5 -225t206.5 -84q76 0 128.5 23.5t84 64.5t46 99t14.5 126q-2 72 -16.5 133.5t-46 105.5t-83 68.5t-127.5 24.5q-270 0 -270 -336zM1157 614h332q51 0 82 7.5t48 21.5 t22.5 34.5t5.5 47.5q0 78 -48.5 97.5t-128.5 19.5h-47q-68 0 -117 -8.5t-82.5 -32t-50 -64.5t-16.5 -106v-17z" />
<glyph unicode="&#x178;" horiz-adv-x="1398" d="M6 1434h301l385 -625l385 625h316l-570 -836v-598h-260v602zM383 1546v226h219v-226h-219zM799 1546v226h217v-226h-217z" />
<glyph unicode="&#x2c6;" horiz-adv-x="880" d="M123 1196l207 258h215l211 -258h-176l-146 131l-135 -131h-176z" />
<glyph unicode="&#x2dc;" horiz-adv-x="972" d="M102 1245q16 39 37 77t49.5 66.5t65.5 47t86 18.5q39 0 77 -12t75.5 -27.5t75.5 -28t79 -12.5t64.5 16.5t52.5 65.5l106 -59q-23 -39 -44 -76t-48.5 -64.5t-65.5 -44t-91 -16.5q-41 0 -77 13.5t-72 28.5t-73 28.5t-77 13.5q-47 0 -72 -31.5t-43 -72.5z" />
<glyph unicode="&#x2000;" horiz-adv-x="950" />
<glyph unicode="&#x2001;" horiz-adv-x="1900" />
<glyph unicode="&#x2002;" horiz-adv-x="950" />
<glyph unicode="&#x2003;" horiz-adv-x="1900" />
<glyph unicode="&#x2004;" horiz-adv-x="633" />
<glyph unicode="&#x2005;" horiz-adv-x="475" />
<glyph unicode="&#x2006;" horiz-adv-x="316" />
<glyph unicode="&#x2007;" horiz-adv-x="316" />
<glyph unicode="&#x2008;" horiz-adv-x="237" />
<glyph unicode="&#x2009;" horiz-adv-x="380" />
<glyph unicode="&#x200a;" horiz-adv-x="105" />
<glyph unicode="&#x2010;" horiz-adv-x="733" d="M61 614v215h611v-215h-611z" />
<glyph unicode="&#x2011;" horiz-adv-x="733" d="M61 614v215h611v-215h-611z" />
<glyph unicode="&#x2012;" horiz-adv-x="733" d="M61 614v215h611v-215h-611z" />
<glyph unicode="&#x2013;" horiz-adv-x="1060" d="M61 524v228h938v-228h-938z" />
<glyph unicode="&#x2014;" horiz-adv-x="1417" d="M61 524v228h1295v-228h-1295z" />
<glyph unicode="&#x2018;" horiz-adv-x="362" d="M41 932v227q0 66 25.5 115t56.5 84q37 39 82 69v-227h117v-268h-281z" />
<glyph unicode="&#x2019;" horiz-adv-x="362" d="M41 1165v269h281v-228q0 -66 -26 -115t-56 -83q-37 -39 -82 -70v227h-117z" />
<glyph unicode="&#x201a;" horiz-adv-x="362" d="M41 1165v269h281v-228q0 -66 -26 -115t-56 -83q-37 -39 -82 -70v227h-117z" />
<glyph unicode="&#x201c;" horiz-adv-x="753" d="M41 932v227q0 66 25.5 115t56.5 84q37 39 82 69v-227h117v-268h-281zM432 932v227q0 66 25.5 115t56.5 84q37 39 82 69v-227h117v-268h-281z" />
<glyph unicode="&#x201d;" horiz-adv-x="753" d="M41 1165v269h281v-228q0 -66 -26 -115t-56 -83q-37 -39 -82 -70v227h-117zM432 1165v269h281v-228q0 -66 -25.5 -115t-56.5 -83q-37 -39 -82 -70v227h-117z" />
<glyph unicode="&#x201e;" horiz-adv-x="753" d="M41 1165v269h281v-228q0 -66 -26 -115t-56 -83q-37 -39 -82 -70v227h-117zM432 1165v269h281v-228q0 -66 -25.5 -115t-56.5 -83q-37 -39 -82 -70v227h-117z" />
<glyph unicode="&#x2022;" horiz-adv-x="722" d="M66 727q0 63 24.5 119.5t64.5 96.5t92 63.5t109 23.5q63 0 117.5 -23.5t95.5 -63.5t64.5 -96t23.5 -120q0 -59 -23.5 -112.5t-64.5 -94.5t-95 -65.5t-118 -24.5q-57 0 -109 24.5t-92 65.5t-64.5 94.5t-24.5 112.5z" />
<glyph unicode="&#x2026;" horiz-adv-x="1296" d="M82 0v268h280v-268h-280zM514 0v268h281v-268h-281zM946 0v268h281v-268h-281z" />
<glyph unicode="&#x202f;" horiz-adv-x="380" />
<glyph unicode="&#x2039;" horiz-adv-x="421" d="M82 410v215l258 256v-242l-131 -125l131 -113v-239z" />
<glyph unicode="&#x203a;" horiz-adv-x="421" d="M82 162v239l129 113l-129 125v242l258 -256v-215z" />
<glyph unicode="&#x205f;" horiz-adv-x="475" />
<glyph unicode="&#x20ac;" horiz-adv-x="1437" d="M82 500v155h108v50v65h-108v154h123q43 274 203.5 408t459.5 134q326 0 488 -168l-209 -168q-47 53 -118 84t-171 31q-309 0 -375 -321h486v-154h-504v-43v-72h504v-155h-486q14 -70 41 -127.5t73 -98.5t112.5 -63.5t158.5 -22.5q106 0 177 34t116 91l185 -192 q-162 -158 -453 -158q-315 0 -482 132t-206 405h-123z" />
<glyph unicode="&#x2122;" horiz-adv-x="1327" d="M82 1348v86h489v-86h-186v-486h-113v486h-190zM629 862v572h139l168 -416l170 416h139v-572h-106v412l-164 -412h-78l-162 412v-412h-106z" />
<glyph unicode="&#x25fc;" horiz-adv-x="1044" d="M0 0v1044h1044v-1044h-1044z" />
<glyph unicode="&#xfb01;" horiz-adv-x="1218" d="M25 834v210h186v39q0 90 17.5 158t56.5 109q82 84 260 84h237v-213h-178q-74 0 -103.5 -30t-29.5 -108v-39h670v-1044h-260v834h-410v-834h-260v834h-186zM881 1169v265h260v-265h-260z" />
<glyph unicode="&#xfb02;" horiz-adv-x="1216" d="M25 834v210h186v39q0 90 17.5 158t56.5 109q82 84 260 84h237v-213h-178q-74 0 -103.5 -30t-29.5 -108v-39h303v-210h-303v-834h-260v834h-186zM881 0v1434h258v-1434h-258z" />
</font>
</defs>
</svg>
